<svg id="Layer_1" data-name="Layer 1" xmlns="http://www.w3.org/2000/svg" xmlns:xlink="http://www.w3.org/1999/xlink" viewBox="0 0 512 512"><defs><style>.cls-1,.cls-6{stroke:#1d1d1b;}.cls-1,.cls-2,.cls-3,.cls-4,.cls-5,.cls-6{stroke-miterlimit:10;}.cls-1,.cls-2,.cls-3,.cls-4,.cls-5{stroke-width:20px;}.cls-1{fill:url(#linear-gradient);}.cls-2,.cls-3,.cls-4,.cls-5{fill:none;}.cls-2{stroke:#2d509f;}.cls-3{stroke:#66b32e;}.cls-4{stroke:#f3e600;}.cls-5{stroke:#e52421;}.cls-6{fill:#fff;stroke-width:5px;}</style><linearGradient id="linear-gradient" x1="58.24" y1="193.28" x2="184.84" y2="66.68" gradientUnits="userSpaceOnUse"><stop offset="0" stop-color="#95c11f"/><stop offset="1" stop-color="#063"/></linearGradient></defs><path class="cls-1" d="M219.84,101.67H148.57V33.33H91.3v68.34H26.83v56.9H91.3v67.77h57.27V158.57h71.27Z"/><path class="cls-2" d="M163.64,356.14c-49.75,30.57-79.58,39.23-102,23.19-17.76-12.71-21.09-67.25,58.44-105.45"/><path class="cls-3" d="M406.76,423c-26.2-52-156.2-117-243.12-66.87"/><path class="cls-4" d="M441.87,408.87C487.22,507,462.56,517.7,406.76,423"/><path class="cls-5" d="M441.87,408.87c-39.31-78.31-140.65-217.12-321.78-135"/><rect class="cls-6" x="149.89" y="345.67" width="27.51" height="20.95"/><rect class="cls-6" x="106.33" y="263.4" width="27.51" height="20.95"/><rect class="cls-6" x="428.11" y="398.39" width="27.51" height="20.95"/><rect class="cls-6" x="393" y="414.78" width="27.51" height="20.95"/></svg>